<svg width="49" height="11" viewBox="0 0 49 11" fill="none" xmlns="http://www.w3.org/2000/svg">
<path d="M6.03027 7.89258C6.03027 8.2015 5.9668 8.49137 5.83984 8.76221C5.71712 9.03304 5.54997 9.27002 5.33838 9.47314C5.13102 9.67627 4.8877 9.83708 4.6084 9.95557C4.33333 10.0698 4.04134 10.127 3.73242 10.127H3.07861C2.76969 10.127 2.47559 10.0698 2.19629 9.95557C1.92122 9.83708 1.6779 9.67627 1.46631 9.47314C1.25895 9.27002 1.0918 9.03304 0.964844 8.76221C0.842122 8.49137 0.780762 8.2015 0.780762 7.89258V7.53076L1.59961 7.39746V7.89258C1.59961 8.0957 1.63981 8.28613 1.72021 8.46387C1.80485 8.63737 1.91699 8.79183 2.05664 8.92725C2.19629 9.05843 2.3571 9.16211 2.53906 9.23828C2.72526 9.31445 2.91992 9.35254 3.12305 9.35254H3.69434C3.89746 9.35254 4.09001 9.31445 4.27197 9.23828C4.45394 9.16211 4.61475 9.05843 4.75439 8.92725C4.89404 8.79183 5.00407 8.63737 5.08447 8.46387C5.16911 8.28613 5.21143 8.0957 5.21143 7.89258V7.61963C5.21143 7.30648 5.15007 7.04622 5.02734 6.83887C4.90462 6.63151 4.7417 6.45589 4.53857 6.31201C4.33545 6.1639 4.10482 6.03906 3.84668 5.9375C3.59277 5.83594 3.3304 5.73438 3.05957 5.63281C2.78874 5.53125 2.52425 5.41911 2.26611 5.29639C2.01221 5.17367 1.78369 5.02132 1.58057 4.83936C1.37744 4.65316 1.21452 4.42676 1.0918 4.16016C0.969076 3.89355 0.907715 3.56559 0.907715 3.17627V3.00488C0.907715 2.69596 0.964844 2.40609 1.0791 2.13525C1.19759 1.86442 1.3584 1.62744 1.56152 1.42432C1.76465 1.22119 2.00163 1.0625 2.27246 0.948242C2.54753 0.829753 2.83952 0.770508 3.14844 0.770508H3.73242C4.04134 0.770508 4.33122 0.829753 4.60205 0.948242C4.87288 1.0625 5.10986 1.22119 5.31299 1.42432C5.51611 1.62744 5.6748 1.86442 5.78906 2.13525C5.90755 2.40609 5.9668 2.69596 5.9668 3.00488V3.23975L5.14795 3.37305V3.00488C5.14795 2.80176 5.10986 2.61344 5.03369 2.43994C4.95752 2.26221 4.85384 2.10775 4.72266 1.97656C4.59147 1.84538 4.43701 1.7417 4.25928 1.66553C4.08577 1.58936 3.89746 1.55127 3.69434 1.55127H3.18652C2.9834 1.55127 2.79297 1.58936 2.61523 1.66553C2.44173 1.7417 2.28727 1.84538 2.15186 1.97656C2.02067 2.10775 1.91699 2.26221 1.84082 2.43994C1.76465 2.61344 1.72656 2.80176 1.72656 3.00488V3.17627C1.72656 3.46826 1.78792 3.7137 1.91064 3.9126C2.03337 4.11149 2.19629 4.28288 2.39941 4.42676C2.60254 4.56641 2.83105 4.68913 3.08496 4.79492C3.3431 4.89648 3.60758 5.00228 3.87842 5.1123C4.14925 5.2181 4.41162 5.33659 4.66553 5.46777C4.92367 5.59473 5.1543 5.75342 5.35742 5.94385C5.56055 6.13005 5.72347 6.35856 5.84619 6.62939C5.96891 6.90023 6.03027 7.23031 6.03027 7.61963V7.89258ZM11.6162 10L11.1846 9.33984C11.0068 9.58105 10.7847 9.7736 10.5181 9.91748C10.2515 10.0571 9.95947 10.127 9.64209 10.127H9.44531C9.18294 10.127 8.93538 10.0783 8.70264 9.98096C8.46989 9.87939 8.26676 9.74186 8.09326 9.56836C7.91976 9.39486 7.78223 9.19173 7.68066 8.95898C7.58333 8.72624 7.53467 8.47868 7.53467 8.21631V3.5H8.31543V8.26074C8.31543 8.41732 8.34505 8.56543 8.4043 8.70508C8.46354 8.84049 8.54395 8.95898 8.64551 9.06055C8.74707 9.16211 8.86556 9.24251 9.00098 9.30176C9.14062 9.361 9.28874 9.39062 9.44531 9.39062H9.96582C10.1224 9.39062 10.2684 9.361 10.4038 9.30176C10.5435 9.24251 10.6641 9.16211 10.7656 9.06055C10.8672 8.95898 10.9476 8.84049 11.0068 8.70508C11.0661 8.56543 11.0957 8.41732 11.0957 8.26074V3.5H11.8765V10H11.6162ZM17.7798 8.21631C17.7798 8.47868 17.729 8.72624 17.6274 8.95898C17.5301 9.19173 17.3947 9.39486 17.2212 9.56836C17.0477 9.74186 16.8446 9.87939 16.6118 9.98096C16.3791 10.0783 16.1315 10.127 15.8691 10.127H15.3486C15.0863 10.127 14.8387 10.0783 14.606 9.98096C14.3732 9.87939 14.1701 9.74186 13.9966 9.56836C13.8231 9.39486 13.6855 9.19173 13.584 8.95898C13.4867 8.72624 13.438 8.47868 13.438 8.21631V0.897461H14.2188V4.0459C14.3965 3.83431 14.6102 3.66927 14.8599 3.55078C15.1095 3.43229 15.3804 3.37305 15.6724 3.37305H15.8691C16.1315 3.37305 16.3791 3.42383 16.6118 3.52539C16.8446 3.62272 17.0477 3.75814 17.2212 3.93164C17.3947 4.10514 17.5301 4.30827 17.6274 4.54102C17.729 4.77376 17.7798 5.02132 17.7798 5.28369V8.21631ZM16.999 5.23926C16.999 5.08268 16.9694 4.93669 16.9102 4.80127C16.8509 4.66162 16.7705 4.54102 16.6689 4.43945C16.5674 4.33789 16.4468 4.25749 16.3071 4.19824C16.1717 4.139 16.0257 4.10938 15.8691 4.10938H15.3486C15.1921 4.10938 15.0439 4.139 14.9043 4.19824C14.7689 4.25749 14.6504 4.33789 14.5488 4.43945C14.4473 4.54102 14.3669 4.66162 14.3076 4.80127C14.2484 4.93669 14.2188 5.08268 14.2188 5.23926V8.26074C14.2188 8.41732 14.2484 8.56543 14.3076 8.70508C14.3669 8.84049 14.4473 8.95898 14.5488 9.06055C14.6504 9.16211 14.7689 9.24251 14.9043 9.30176C15.0439 9.361 15.1921 9.39062 15.3486 9.39062H15.8691C16.0257 9.39062 16.1717 9.361 16.3071 9.30176C16.4468 9.24251 16.5674 9.16211 16.6689 9.06055C16.7705 8.95898 16.8509 8.84049 16.9102 8.70508C16.9694 8.56543 16.999 8.41732 16.999 8.26074V5.23926ZM23.8101 8.34961C23.8101 8.61198 23.7572 8.85319 23.6514 9.07324C23.5456 9.28906 23.4017 9.47526 23.2197 9.63184C23.0378 9.78841 22.8262 9.91113 22.585 10C22.348 10.0846 22.0983 10.127 21.8359 10.127H21.3154C21.0531 10.127 20.8013 10.0783 20.5601 9.98096C20.3231 9.87939 20.1136 9.74186 19.9316 9.56836C19.7539 9.39486 19.61 9.19173 19.5 8.95898C19.3942 8.72624 19.3413 8.47868 19.3413 8.21631V7.95605L20.1221 7.8291V8.26074C20.1221 8.41732 20.1538 8.56543 20.2173 8.70508C20.285 8.84049 20.3739 8.95898 20.4839 9.06055C20.5939 9.16211 20.7209 9.24251 20.8647 9.30176C21.0086 9.361 21.1589 9.39062 21.3154 9.39062H21.8359C21.9925 9.39062 22.1427 9.36735 22.2866 9.3208C22.4305 9.27425 22.5575 9.20866 22.6675 9.12402C22.7817 9.03516 22.8706 8.92936 22.9341 8.80664C23.0018 8.68392 23.0356 8.54427 23.0356 8.3877C23.0356 8.15495 22.9849 7.96452 22.8833 7.81641C22.7817 7.66829 22.6463 7.54557 22.4771 7.44824C22.312 7.34668 22.1216 7.26416 21.9058 7.20068C21.6942 7.13298 21.4762 7.06738 21.252 7.00391C21.0277 6.9362 20.8076 6.86003 20.5918 6.77539C20.3802 6.69076 20.1898 6.58073 20.0205 6.44531C19.8555 6.30566 19.7222 6.13216 19.6206 5.9248C19.519 5.71745 19.4683 5.45931 19.4683 5.15039C19.4683 4.88802 19.519 4.64893 19.6206 4.43311C19.7222 4.21305 19.8597 4.02474 20.0332 3.86816C20.2067 3.71159 20.4077 3.59098 20.6362 3.50635C20.869 3.41748 21.1165 3.37305 21.3789 3.37305H21.8359C22.0983 3.37305 22.3459 3.42383 22.5786 3.52539C22.8114 3.62272 23.0145 3.75814 23.188 3.93164C23.3615 4.10514 23.4969 4.30827 23.5942 4.54102C23.6958 4.77376 23.7466 5.02132 23.7466 5.28369V5.30908L22.9658 5.43604V5.23926C22.9658 5.08268 22.9362 4.93669 22.877 4.80127C22.8177 4.66162 22.7373 4.54102 22.6357 4.43945C22.5342 4.33789 22.4136 4.25749 22.2739 4.19824C22.1385 4.139 21.9925 4.10938 21.8359 4.10938H21.3789C21.2223 4.10938 21.0742 4.13265 20.9346 4.1792C20.7992 4.22575 20.6807 4.29346 20.5791 4.38232C20.4775 4.46696 20.3971 4.57064 20.3379 4.69336C20.2786 4.81608 20.249 4.95573 20.249 5.1123C20.249 5.33659 20.2998 5.52067 20.4014 5.66455C20.5029 5.8042 20.6362 5.92269 20.8013 6.02002C20.9705 6.11735 21.161 6.19987 21.3726 6.26758C21.5884 6.33105 21.8063 6.39876 22.0264 6.4707C22.2507 6.53841 22.4686 6.6167 22.6802 6.70557C22.896 6.79443 23.0864 6.90869 23.2515 7.04834C23.4207 7.18799 23.5562 7.36361 23.6577 7.5752C23.7593 7.78255 23.8101 8.04069 23.8101 8.34961ZM29.6499 8.21631C29.6499 8.47868 29.5991 8.72624 29.4976 8.95898C29.4002 9.19173 29.2648 9.39486 29.0913 9.56836C28.9178 9.74186 28.7147 9.87939 28.4819 9.98096C28.2492 10.0783 28.0016 10.127 27.7393 10.127H27.2188C26.9564 10.127 26.7088 10.0783 26.4761 9.98096C26.2433 9.87939 26.0402 9.74186 25.8667 9.56836C25.6932 9.39486 25.5557 9.19173 25.4541 8.95898C25.3568 8.72624 25.3081 8.47868 25.3081 8.21631V5.28369C25.3081 5.02132 25.3568 4.77376 25.4541 4.54102C25.5557 4.30827 25.6932 4.10514 25.8667 3.93164C26.0402 3.75814 26.2433 3.62272 26.4761 3.52539C26.7088 3.42383 26.9564 3.37305 27.2188 3.37305H27.7393C28.0016 3.37305 28.2492 3.42383 28.4819 3.52539C28.7147 3.62272 28.9178 3.75814 29.0913 3.93164C29.2648 4.10514 29.4002 4.30827 29.4976 4.54102C29.5991 4.77376 29.6499 5.02132 29.6499 5.28369V5.54395L28.8691 5.6709V5.23926C28.8691 5.08268 28.8395 4.93669 28.7803 4.80127C28.721 4.66162 28.6406 4.54102 28.5391 4.43945C28.4375 4.33789 28.3169 4.25749 28.1772 4.19824C28.0418 4.139 27.8958 4.10938 27.7393 4.10938H27.2188C27.0622 4.10938 26.9141 4.139 26.7744 4.19824C26.639 4.25749 26.5205 4.33789 26.4189 4.43945C26.3174 4.54102 26.237 4.66162 26.1777 4.80127C26.1185 4.93669 26.0889 5.08268 26.0889 5.23926V8.26074C26.0889 8.41732 26.1185 8.56543 26.1777 8.70508C26.237 8.84049 26.3174 8.95898 26.4189 9.06055C26.5205 9.16211 26.639 9.24251 26.7744 9.30176C26.9141 9.361 27.0622 9.39062 27.2188 9.39062H27.7393C27.8958 9.39062 28.0418 9.361 28.1772 9.30176C28.3169 9.24251 28.4375 9.16211 28.5391 9.06055C28.6406 8.95898 28.721 8.84049 28.7803 8.70508C28.8395 8.56543 28.8691 8.41732 28.8691 8.26074V7.8291L29.6499 7.95605V8.21631ZM33.1221 4.24268C32.9655 4.24268 32.8174 4.2723 32.6777 4.33154C32.5423 4.39079 32.4238 4.47119 32.3223 4.57275C32.2207 4.67432 32.1403 4.79492 32.0811 4.93457C32.0218 5.06999 31.9922 5.21598 31.9922 5.37256V10H31.2114V3.5H31.4717L31.897 4.16016C32.0747 3.91895 32.2969 3.72852 32.5635 3.58887C32.8343 3.44499 33.1284 3.37305 33.4458 3.37305H33.9028V4.24268H33.1221ZM35.1406 1.93848V0.897461H36.0483V1.93848H35.1406ZM35.2041 10V3.5H35.9849V10H35.2041ZM42.1548 8.21631C42.1548 8.47868 42.104 8.72624 42.0024 8.95898C41.9051 9.19173 41.7697 9.39486 41.5962 9.56836C41.4227 9.74186 41.2196 9.87939 40.9868 9.98096C40.7541 10.0783 40.5065 10.127 40.2441 10.127H39.7236C39.4613 10.127 39.2137 10.0783 38.981 9.98096C38.7482 9.87939 38.5451 9.74186 38.3716 9.56836C38.1981 9.39486 38.0605 9.19173 37.959 8.95898C37.8617 8.72624 37.813 8.47868 37.813 8.21631V0.897461H38.5938V4.0459C38.7715 3.83431 38.9852 3.66927 39.2349 3.55078C39.4845 3.43229 39.7554 3.37305 40.0474 3.37305H40.2441C40.5065 3.37305 40.7541 3.42383 40.9868 3.52539C41.2196 3.62272 41.4227 3.75814 41.5962 3.93164C41.7697 4.10514 41.9051 4.30827 42.0024 4.54102C42.104 4.77376 42.1548 5.02132 42.1548 5.28369V8.21631ZM41.374 5.23926C41.374 5.08268 41.3444 4.93669 41.2852 4.80127C41.2259 4.66162 41.1455 4.54102 41.0439 4.43945C40.9424 4.33789 40.8218 4.25749 40.6821 4.19824C40.5467 4.139 40.4007 4.10938 40.2441 4.10938H39.7236C39.5671 4.10938 39.4189 4.139 39.2793 4.19824C39.1439 4.25749 39.0254 4.33789 38.9238 4.43945C38.8223 4.54102 38.7419 4.66162 38.6826 4.80127C38.6234 4.93669 38.5938 5.08268 38.5938 5.23926V8.26074C38.5938 8.41732 38.6234 8.56543 38.6826 8.70508C38.7419 8.84049 38.8223 8.95898 38.9238 9.06055C39.0254 9.16211 39.1439 9.24251 39.2793 9.30176C39.4189 9.361 39.5671 9.39062 39.7236 9.39062H40.2441C40.4007 9.39062 40.5467 9.361 40.6821 9.30176C40.8218 9.24251 40.9424 9.16211 41.0439 9.06055C41.1455 8.95898 41.2259 8.84049 41.2852 8.70508C41.3444 8.56543 41.374 8.41732 41.374 8.26074V5.23926ZM48.0581 8.21631C48.0581 8.47868 48.0073 8.72624 47.9058 8.95898C47.8084 9.19173 47.673 9.39486 47.4995 9.56836C47.326 9.74186 47.1229 9.87939 46.8901 9.98096C46.6574 10.0783 46.4098 10.127 46.1475 10.127H45.627C45.3646 10.127 45.117 10.0783 44.8843 9.98096C44.6515 9.87939 44.4484 9.74186 44.2749 9.56836C44.1014 9.39486 43.9639 9.19173 43.8623 8.95898C43.765 8.72624 43.7163 8.47868 43.7163 8.21631V5.28369C43.7163 5.02132 43.765 4.77376 43.8623 4.54102C43.9639 4.30827 44.1014 4.10514 44.2749 3.93164C44.4484 3.75814 44.6515 3.62272 44.8843 3.52539C45.117 3.42383 45.3646 3.37305 45.627 3.37305H46.1475C46.4098 3.37305 46.6574 3.42383 46.8901 3.52539C47.1229 3.62272 47.326 3.75814 47.4995 3.93164C47.673 4.10514 47.8084 4.30827 47.9058 4.54102C48.0073 4.77376 48.0581 5.02132 48.0581 5.28369V6.81348H44.4971V8.26074C44.4971 8.41732 44.5267 8.56543 44.5859 8.70508C44.6452 8.84049 44.7256 8.95898 44.8271 9.06055C44.9287 9.16211 45.0472 9.24251 45.1826 9.30176C45.3223 9.361 45.4704 9.39062 45.627 9.39062H46.1475C46.304 9.39062 46.45 9.361 46.5854 9.30176C46.7251 9.24251 46.8457 9.16211 46.9473 9.06055C47.0488 8.95898 47.1292 8.84049 47.1885 8.70508C47.2477 8.56543 47.2773 8.41732 47.2773 8.26074V7.8291L48.0581 7.95605V8.21631ZM47.2773 5.23926C47.2773 5.08268 47.2477 4.93669 47.1885 4.80127C47.1292 4.66162 47.0488 4.54102 46.9473 4.43945C46.8457 4.33789 46.7251 4.25749 46.5854 4.19824C46.45 4.139 46.304 4.10938 46.1475 4.10938H45.627C45.4704 4.10938 45.3223 4.139 45.1826 4.19824C45.0472 4.25749 44.9287 4.33789 44.8271 4.43945C44.7256 4.54102 44.6452 4.66162 44.5859 4.80127C44.5267 4.93669 44.4971 5.08268 44.4971 5.23926V6.2041H47.2773V5.23926Z" fill="white"/>
</svg>
