<svg width="51" height="11" viewBox="0 0 51 11" fill="none" xmlns="http://www.w3.org/2000/svg">
<path d="M3.43408 5.64551V10H2.61523V5.6582L0.260254 0.897461H1.14258L3.01514 4.68066L4.8877 0.897461H5.77002L3.43408 5.64551ZM10.6323 8.21631C10.6323 8.47868 10.5815 8.72624 10.48 8.95898C10.3826 9.19173 10.2472 9.39486 10.0737 9.56836C9.90023 9.74186 9.6971 9.87939 9.46436 9.98096C9.23161 10.0783 8.98405 10.127 8.72168 10.127H8.20117C7.9388 10.127 7.69124 10.0783 7.4585 9.98096C7.22575 9.87939 7.02262 9.74186 6.84912 9.56836C6.67562 9.39486 6.53809 9.19173 6.43652 8.95898C6.33919 8.72624 6.29053 8.47868 6.29053 8.21631V5.28369C6.29053 5.02132 6.33919 4.77376 6.43652 4.54102C6.53809 4.30827 6.67562 4.10514 6.84912 3.93164C7.02262 3.75814 7.22575 3.62272 7.4585 3.52539C7.69124 3.42383 7.9388 3.37305 8.20117 3.37305H8.72168C8.98405 3.37305 9.23161 3.42383 9.46436 3.52539C9.6971 3.62272 9.90023 3.75814 10.0737 3.93164C10.2472 4.10514 10.3826 4.30827 10.48 4.54102C10.5815 4.77376 10.6323 5.02132 10.6323 5.28369V8.21631ZM9.85156 5.23926C9.85156 5.08268 9.82194 4.93669 9.7627 4.80127C9.70345 4.66162 9.62305 4.54102 9.52148 4.43945C9.41992 4.33789 9.29932 4.25749 9.15967 4.19824C9.02425 4.139 8.87826 4.10938 8.72168 4.10938H8.20117C8.0446 4.10938 7.89648 4.139 7.75684 4.19824C7.62142 4.25749 7.50293 4.33789 7.40137 4.43945C7.2998 4.54102 7.2194 4.66162 7.16016 4.80127C7.10091 4.93669 7.07129 5.08268 7.07129 5.23926V8.26074C7.07129 8.41732 7.10091 8.56543 7.16016 8.70508C7.2194 8.84049 7.2998 8.95898 7.40137 9.06055C7.50293 9.16211 7.62142 9.24251 7.75684 9.30176C7.89648 9.361 8.0446 9.39062 8.20117 9.39062H8.72168C8.87826 9.39062 9.02425 9.361 9.15967 9.30176C9.29932 9.24251 9.41992 9.16211 9.52148 9.06055C9.62305 8.95898 9.70345 8.84049 9.7627 8.70508C9.82194 8.56543 9.85156 8.41732 9.85156 8.26074V5.23926ZM16.2754 10L15.8438 9.33984C15.666 9.58105 15.4438 9.7736 15.1772 9.91748C14.9106 10.0571 14.6187 10.127 14.3013 10.127H14.1045C13.8421 10.127 13.5946 10.0783 13.3618 9.98096C13.1291 9.87939 12.9259 9.74186 12.7524 9.56836C12.5789 9.39486 12.4414 9.19173 12.3398 8.95898C12.2425 8.72624 12.1938 8.47868 12.1938 8.21631V3.5H12.9746V8.26074C12.9746 8.41732 13.0042 8.56543 13.0635 8.70508C13.1227 8.84049 13.2031 8.95898 13.3047 9.06055C13.4062 9.16211 13.5247 9.24251 13.6602 9.30176C13.7998 9.361 13.9479 9.39062 14.1045 9.39062H14.625C14.7816 9.39062 14.9276 9.361 15.063 9.30176C15.2026 9.24251 15.3232 9.16211 15.4248 9.06055C15.5264 8.95898 15.6068 8.84049 15.666 8.70508C15.7253 8.56543 15.7549 8.41732 15.7549 8.26074V3.5H16.5356V10H16.2754ZM20.0078 4.24268C19.8512 4.24268 19.7031 4.2723 19.5635 4.33154C19.4281 4.39079 19.3096 4.47119 19.208 4.57275C19.1064 4.67432 19.026 4.79492 18.9668 4.93457C18.9076 5.06999 18.8779 5.21598 18.8779 5.37256V10H18.0972V3.5H18.3574L18.7827 4.16016C18.9604 3.91895 19.1826 3.72852 19.4492 3.58887C19.7201 3.44499 20.0142 3.37305 20.3315 3.37305H20.7886V4.24268H20.0078ZM25.0859 10V0.897461H30.2085V1.67822H25.9048V5.06152H29.3896V5.84229H25.9048V9.21924H30.2085V10H25.0859ZM38.3779 10V5.23926C38.3779 5.08268 38.3483 4.93669 38.2891 4.80127C38.2298 4.66162 38.1494 4.54102 38.0479 4.43945C37.9463 4.33789 37.8257 4.25749 37.686 4.19824C37.5506 4.139 37.4046 4.10938 37.248 4.10938H36.8608C36.7043 4.10938 36.5562 4.139 36.4165 4.19824C36.2811 4.25749 36.1605 4.33789 36.0547 4.43945C35.9531 4.54102 35.8727 4.66162 35.8135 4.80127C35.7542 4.93669 35.7246 5.08268 35.7246 5.23926V10H34.9502V5.23926C34.9502 5.08268 34.9206 4.93669 34.8613 4.80127C34.8021 4.66162 34.7196 4.54102 34.6138 4.43945C34.5122 4.33789 34.3916 4.25749 34.252 4.19824C34.1165 4.139 33.9705 4.10938 33.814 4.10938H33.4268C33.2702 4.10938 33.1221 4.139 32.9824 4.19824C32.847 4.25749 32.7285 4.33789 32.627 4.43945C32.5254 4.54102 32.445 4.66162 32.3857 4.80127C32.3265 4.93669 32.2969 5.08268 32.2969 5.23926V10H31.5161V3.5H31.7764L32.2017 4.16016C32.3794 3.91895 32.6016 3.72852 32.8682 3.58887C33.139 3.44499 33.4331 3.37305 33.7505 3.37305H33.814C34.1821 3.37305 34.5143 3.46403 34.8105 3.646C35.1068 3.82796 35.3353 4.06917 35.4961 4.36963C35.5765 4.22152 35.6759 4.0861 35.7944 3.96338C35.9129 3.84066 36.0441 3.73698 36.188 3.65234C36.3319 3.56348 36.4884 3.49577 36.6577 3.44922C36.827 3.39844 37.0026 3.37305 37.1846 3.37305H37.248C37.5104 3.37305 37.758 3.42383 37.9907 3.52539C38.2235 3.62272 38.4266 3.75814 38.6001 3.93164C38.7736 4.10514 38.909 4.30827 39.0063 4.54102C39.1079 4.77376 39.1587 5.02132 39.1587 5.28369V10H38.3779ZM44.8018 10L44.3701 9.35254C44.1924 9.58529 43.9702 9.7736 43.7036 9.91748C43.437 10.0571 43.145 10.127 42.8276 10.127H42.6309C42.3685 10.127 42.1209 10.0783 41.8882 9.98096C41.6554 9.87939 41.4523 9.74186 41.2788 9.56836C41.1053 9.39486 40.9678 9.19173 40.8662 8.95898C40.7689 8.72624 40.7202 8.47868 40.7202 8.21631V8.15283C40.7202 7.89046 40.7689 7.6429 40.8662 7.41016C40.9678 7.17741 41.1053 6.97428 41.2788 6.80078C41.4523 6.62728 41.6554 6.49186 41.8882 6.39453C42.1209 6.29297 42.3685 6.24219 42.6309 6.24219H44.2812V5.23926C44.2812 5.08268 44.2516 4.93669 44.1924 4.80127C44.1331 4.66162 44.0527 4.54102 43.9512 4.43945C43.8496 4.33789 43.729 4.25749 43.5894 4.19824C43.4539 4.139 43.3079 4.10938 43.1514 4.10938H42.6943C42.5378 4.10938 42.3896 4.139 42.25 4.19824C42.1146 4.25749 41.9961 4.33789 41.8945 4.43945C41.793 4.54102 41.7126 4.66162 41.6533 4.80127C41.5941 4.93669 41.5645 5.08268 41.5645 5.23926V5.47412L40.7837 5.34717V5.28369C40.7837 5.02132 40.8324 4.77376 40.9297 4.54102C41.0312 4.30827 41.1688 4.10514 41.3423 3.93164C41.5158 3.75814 41.7189 3.62272 41.9517 3.52539C42.1844 3.42383 42.432 3.37305 42.6943 3.37305H43.1514C43.4137 3.37305 43.6613 3.42383 43.894 3.52539C44.1268 3.62272 44.3299 3.75814 44.5034 3.93164C44.6769 4.10514 44.8123 4.30827 44.9097 4.54102C45.0112 4.77376 45.062 5.02132 45.062 5.28369V10H44.8018ZM44.2812 6.85156H42.6309C42.4743 6.85156 42.3262 6.88118 42.1865 6.94043C42.0511 6.99967 41.9326 7.08219 41.8311 7.18799C41.7295 7.28955 41.6491 7.41016 41.5898 7.5498C41.5306 7.68522 41.501 7.83122 41.501 7.98779V8.26074C41.501 8.41732 41.5306 8.56543 41.5898 8.70508C41.6491 8.84049 41.7295 8.95898 41.8311 9.06055C41.9326 9.16211 42.0511 9.24251 42.1865 9.30176C42.3262 9.361 42.4743 9.39062 42.6309 9.39062H43.1514C43.3079 9.39062 43.4539 9.361 43.5894 9.30176C43.729 9.24251 43.8496 9.16211 43.9512 9.06055C44.0527 8.95898 44.1331 8.84049 44.1924 8.70508C44.2516 8.56543 44.2812 8.41732 44.2812 8.26074V6.85156ZM46.8203 1.93848V0.897461H47.728V1.93848H46.8203ZM46.8838 10V3.5H47.6646V10H46.8838ZM49.7529 10V0.897461H50.5337V10H49.7529Z" fill="#9B9B9B"/>
</svg>
